<svg width="18" height="18" viewBox="0 0 18 18" fill="none" xmlns="http://www.w3.org/2000/svg">
<path d="M10.6665 0.66211C12.1915 0.661384 13.6706 1.18234 14.8572 2.13809C16.0438 3.09384 16.8661 4.4266 17.187 5.91411C17.508 7.40162 17.3081 8.95394 16.6207 10.3122C15.9333 11.6704 14.8 12.7525 13.4098 13.3779C12.9654 14.3581 12.2894 15.2162 11.4397 15.8785C10.59 16.5408 9.59194 16.9876 8.53117 17.1805C7.4704 17.3735 6.37856 17.3068 5.34928 16.9862C4.32 16.6657 3.38401 16.1008 2.62157 15.3401C1.85913 14.5793 1.293 13.6454 0.971737 12.6185C0.650472 11.5915 0.583657 10.5021 0.777024 9.44365C0.97039 8.38524 1.41817 7.38942 2.08195 6.5416C2.74573 5.69378 3.60572 5.01925 4.58814 4.57587C5.11659 3.40922 5.97113 2.41944 7.04926 1.72524C8.12739 1.03105 9.38334 0.661912 10.6665 0.66211ZM10.6665 2.32507C9.96038 2.32424 9.26216 2.47302 8.61799 2.76156C7.97383 3.0501 7.39842 3.47182 6.92981 3.99883C7.8717 3.94178 8.81499 4.08488 9.69732 4.41868C10.5796 4.75248 11.3809 5.26936 12.0481 5.93516C12.7153 6.60095 13.2332 7.40048 13.5677 8.28088C13.9021 9.16128 14.0454 10.1025 13.9881 11.0423C14.7458 10.3701 15.2808 9.48404 15.5222 8.50154C15.7635 7.51903 15.6998 6.48654 15.3395 5.54099C14.9792 4.59544 14.3393 3.78151 13.5048 3.20716C12.6702 2.63282 11.6803 2.32518 10.6665 2.32507Z" fill="black"/>
</svg>
